<svg width="265" height="67" viewBox="0 0 265 67" fill="none" xmlns="http://www.w3.org/2000/svg">
<path d="M90.0366 41.0099C90.0366 41.0099 84.5366 48.5099 84.0365 48.5099C83.5365 48.5099 74.5366 43.01 56.0366 41.01C37.5366 39.0099 26.0366 34.0099 26.0366 33.01C26.0365 32.01 29.3259 27.6895 32.5366 29.51C32.5366 29.51 35.0366 13.01 37.5366 14.01C40.0366 15.01 42.5366 19.01 44.0366 19.01C45.5366 19.01 54.5365 0.509939 58.0365 1.00996C61.5365 1.50997 75.5366 36.0099 90.0366 41.0099Z" fill="white" stroke="white"/>
<path d="M21.5365 34.5099C21.5365 32.0099 24.5366 30.5099 25.5366 29.5099C7.0203 33.3657 1.03656 36.0099 1.03656 39.0099C0.53656 42.5099 5.03651 44.5099 22.5365 49.0099C37.909 52.8176 42.7554 55.0099 45.0365 59.0099C47.0325 62.5099 30.0365 65.0099 31.0365 66.0099C32.0365 67.0099 72.5366 59.0099 75.0366 54.0099C77.5366 49.0099 65.0365 45.0099 50.0365 43.0099C35.0365 41.0099 21.5365 37.0099 21.5365 34.5099Z" fill="white" stroke="white"/>
<path d="M98 66V1" stroke="white"/>
<path d="M113.888 30.074V39.186C113.888 39.8207 114.035 40.2853 114.33 40.58C114.647 40.852 115.169 40.988 115.894 40.988H118.104V45H115.112C111.1 45 109.094 43.0507 109.094 39.152V30.074H106.85V26.164H109.094V21.506H113.888V26.164H118.104V30.074H113.888ZM126.288 29.088C126.9 28.0907 127.693 27.3087 128.668 26.742C129.665 26.1753 130.798 25.892 132.068 25.892V30.89H130.81C129.314 30.89 128.18 31.2413 127.41 31.944C126.662 32.6467 126.288 33.8707 126.288 35.616V45H121.528V26.164H126.288V29.088ZM134.05 35.514C134.05 33.61 134.424 31.9213 135.172 30.448C135.942 28.9747 136.974 27.8413 138.266 27.048C139.58 26.2547 141.042 25.858 142.652 25.858C144.057 25.858 145.281 26.1413 146.324 26.708C147.389 27.2747 148.239 27.9887 148.874 28.85V26.164H153.668V45H148.874V42.246C148.262 43.13 147.412 43.8667 146.324 44.456C145.258 45.0227 144.023 45.306 142.618 45.306C141.031 45.306 139.58 44.898 138.266 44.082C136.974 43.266 135.942 42.1213 135.172 40.648C134.424 39.152 134.05 37.4407 134.05 35.514ZM148.874 35.582C148.874 34.426 148.647 33.44 148.194 32.624C147.74 31.7853 147.128 31.1507 146.358 30.72C145.587 30.2667 144.76 30.04 143.876 30.04C142.992 30.04 142.176 30.2553 141.428 30.686C140.68 31.1167 140.068 31.7513 139.592 32.59C139.138 33.406 138.912 34.3807 138.912 35.514C138.912 36.6473 139.138 37.6447 139.592 38.506C140.068 39.3447 140.68 39.9907 141.428 40.444C142.198 40.8973 143.014 41.124 143.876 41.124C144.76 41.124 145.587 40.9087 146.358 40.478C147.128 40.0247 147.74 39.39 148.194 38.574C148.647 37.7353 148.874 36.738 148.874 35.582ZM160.731 23.92C159.892 23.92 159.189 23.6593 158.623 23.138C158.079 22.594 157.807 21.9253 157.807 21.132C157.807 20.3387 158.079 19.6813 158.623 19.16C159.189 18.616 159.892 18.344 160.731 18.344C161.569 18.344 162.261 18.616 162.805 19.16C163.371 19.6813 163.655 20.3387 163.655 21.132C163.655 21.9253 163.371 22.594 162.805 23.138C162.261 23.6593 161.569 23.92 160.731 23.92ZM163.077 26.164V45H158.317V26.164H163.077ZM172.54 19.84V45H167.78V19.84H172.54ZM187.85 25.892C189.278 25.892 190.548 26.2093 191.658 26.844C192.769 27.456 193.63 28.374 194.242 29.598C194.877 30.7993 195.194 32.25 195.194 33.95V45H190.434V34.596C190.434 33.1 190.06 31.9553 189.312 31.162C188.564 30.346 187.544 29.938 186.252 29.938C184.938 29.938 183.895 30.346 183.124 31.162C182.376 31.9553 182.002 33.1 182.002 34.596V45H177.242V19.84H182.002V28.51C182.614 27.694 183.43 27.0593 184.45 26.606C185.47 26.13 186.604 25.892 187.85 25.892ZM217.231 35.174C217.231 35.854 217.186 36.466 217.095 37.01H203.325C203.438 38.37 203.914 39.4353 204.753 40.206C205.592 40.9767 206.623 41.362 207.847 41.362C209.615 41.362 210.873 40.6027 211.621 39.084H216.755C216.211 40.8973 215.168 42.3933 213.627 43.572C212.086 44.728 210.193 45.306 207.949 45.306C206.136 45.306 204.504 44.9093 203.053 44.116C201.625 43.3 200.503 42.1553 199.687 40.682C198.894 39.2087 198.497 37.5087 198.497 35.582C198.497 33.6327 198.894 31.9213 199.687 30.448C200.48 28.9747 201.591 27.8413 203.019 27.048C204.447 26.2547 206.09 25.858 207.949 25.858C209.74 25.858 211.338 26.2433 212.743 27.014C214.171 27.7847 215.27 28.884 216.041 30.312C216.834 31.7173 217.231 33.338 217.231 35.174ZM212.301 33.814C212.278 32.59 211.836 31.6153 210.975 30.89C210.114 30.142 209.06 29.768 207.813 29.768C206.634 29.768 205.637 30.1307 204.821 30.856C204.028 31.5587 203.54 32.5447 203.359 33.814H212.301ZM219.481 35.514C219.481 33.61 219.855 31.9213 220.603 30.448C221.374 28.9747 222.405 27.8413 223.697 27.048C225.012 26.2547 226.474 25.858 228.083 25.858C229.489 25.858 230.713 26.1413 231.755 26.708C232.821 27.2747 233.671 27.9887 234.305 28.85V26.164H239.099V45H234.305V42.246C233.693 43.13 232.843 43.8667 231.755 44.456C230.69 45.0227 229.455 45.306 228.049 45.306C226.463 45.306 225.012 44.898 223.697 44.082C222.405 43.266 221.374 42.1213 220.603 40.648C219.855 39.152 219.481 37.4407 219.481 35.514ZM234.305 35.582C234.305 34.426 234.079 33.44 233.625 32.624C233.172 31.7853 232.56 31.1507 231.789 30.72C231.019 30.2667 230.191 30.04 229.307 30.04C228.423 30.04 227.607 30.2553 226.859 30.686C226.111 31.1167 225.499 31.7513 225.023 32.59C224.57 33.406 224.343 34.3807 224.343 35.514C224.343 36.6473 224.57 37.6447 225.023 38.506C225.499 39.3447 226.111 39.9907 226.859 40.444C227.63 40.8973 228.446 41.124 229.307 41.124C230.191 41.124 231.019 40.9087 231.789 40.478C232.56 40.0247 233.172 39.39 233.625 38.574C234.079 37.7353 234.305 36.738 234.305 35.582ZM242.524 35.514C242.524 33.61 242.898 31.9213 243.646 30.448C244.417 28.9747 245.46 27.8413 246.774 27.048C248.089 26.2547 249.551 25.858 251.16 25.858C252.384 25.858 253.552 26.13 254.662 26.674C255.773 27.1953 256.657 27.898 257.314 28.782V19.84H262.142V45H257.314V42.212C256.725 43.1413 255.898 43.8893 254.832 44.456C253.767 45.0227 252.532 45.306 251.126 45.306C249.54 45.306 248.089 44.898 246.774 44.082C245.46 43.266 244.417 42.1213 243.646 40.648C242.898 39.152 242.524 37.4407 242.524 35.514ZM257.348 35.582C257.348 34.426 257.122 33.44 256.668 32.624C256.215 31.7853 255.603 31.1507 254.832 30.72C254.062 30.2667 253.234 30.04 252.35 30.04C251.466 30.04 250.65 30.2553 249.902 30.686C249.154 31.1167 248.542 31.7513 248.066 32.59C247.613 33.406 247.386 34.3807 247.386 35.514C247.386 36.6473 247.613 37.6447 248.066 38.506C248.542 39.3447 249.154 39.9907 249.902 40.444C250.673 40.8973 251.489 41.124 252.35 41.124C253.234 41.124 254.062 40.9087 254.832 40.478C255.603 40.0247 256.215 39.39 256.668 38.574C257.122 37.7353 257.348 36.738 257.348 35.582Z" fill="white"/>
</svg>
