<svg width="50" height="50" viewBox="0 0 50 50" fill="none" xmlns="http://www.w3.org/2000/svg">
<path d="M27.8118 42.3067C26.2285 43.7442 23.791 43.7442 22.2077 42.2858L21.9785 42.0775C11.041 32.1817 3.89518 25.7025 4.16601 17.6192C4.29101 14.0775 6.10351 10.6817 9.04101 8.68166C14.541 4.93166 21.3327 6.68166 24.9993 10.9733C28.666 6.68166 35.4577 4.91083 40.9577 8.68166C43.8952 10.6817 45.7077 14.0775 45.8327 17.6192C46.1243 25.7025 38.9577 32.1817 28.0202 42.1192L27.8118 42.3067Z" fill="#2a2a2a"/>
<path d="M31.3771 26.625H26.6521V31.475H23.3521V26.625H18.6271V23.575H23.3521V18.725H26.6521V23.575H31.3771V26.625Z" fill="#e3d9ca"/>
</svg>
