<svg width="18" height="18" viewBox="0 0 18 18" fill="none" xmlns="http://www.w3.org/2000/svg">
<path fill-rule="evenodd" clip-rule="evenodd" d="M12.1867 11.4716H12.9767L17.2167 15.7316C17.6267 16.1416 17.6267 16.8116 17.2167 17.2216C16.8067 17.6316 16.1367 17.6316 15.7267 17.2216L11.4767 12.9716V12.1816L11.2067 11.9016C9.8067 13.1016 7.8967 13.7216 5.8667 13.3816C3.0867 12.9116 0.8667 10.5916 0.5267 7.79156C0.00669983 3.56156 3.5667 0.00155762 7.7967 0.521558C10.5967 0.861558 12.9167 3.08156 13.3867 5.86156C13.7267 7.89156 13.1067 9.80156 11.9067 11.2016L12.1867 11.4716ZM2.4767 6.97156C2.4767 9.46156 4.4867 11.4716 6.9767 11.4716C9.4667 11.4716 11.4767 9.46156 11.4767 6.97156C11.4767 4.48156 9.4667 2.47156 6.9767 2.47156C4.4867 2.47156 2.4767 4.48156 2.4767 6.97156Z" fill="#6D7D8B"/>
</svg>
